<mxfile host="app.diagrams.net" agent="Mozilla/5.0 (Macintosh; Intel Mac OS X 10.15; rv:138.0) Gecko/20100101 Firefox/138.0" version="27.0.9">
  <diagram name="Seite-1" id="SihNaje8-9wR3qkRNZR8">
    <mxGraphModel dx="-1603" dy="-231" grid="1" gridSize="10" guides="1" tooltips="1" connect="1" arrows="1" fold="1" page="0" pageScale="1" pageWidth="827" pageHeight="1169" math="0" shadow="0">
      <root>
        <mxCell id="0" />
        <mxCell id="1" parent="0" />
        <mxCell id="zTeXIrseUbLqfUmHTD1K-152" value="" style="whiteSpace=wrap;html=1;" vertex="1" parent="1">
          <mxGeometry x="2679.94" y="2730" width="240" height="160" as="geometry" />
        </mxCell>
        <mxCell id="zTeXIrseUbLqfUmHTD1K-153" value="" style="edgeStyle=none;orthogonalLoop=1;jettySize=auto;html=1;rounded=0;entryX=0.5;entryY=1;entryDx=0;entryDy=0;exitX=0.501;exitY=0.101;exitDx=0;exitDy=0;exitPerimeter=0;" edge="1" parent="1" source="zTeXIrseUbLqfUmHTD1K-164" target="zTeXIrseUbLqfUmHTD1K-152">
          <mxGeometry width="80" relative="1" as="geometry">
            <mxPoint x="2799.94" y="2924" as="sourcePoint" />
            <mxPoint x="2679.94" y="2809.5" as="targetPoint" />
            <Array as="points" />
          </mxGeometry>
        </mxCell>
        <mxCell id="zTeXIrseUbLqfUmHTD1K-154" value="" style="whiteSpace=wrap;html=1;" vertex="1" parent="1">
          <mxGeometry x="2779.94" y="2710" width="40" height="30" as="geometry" />
        </mxCell>
        <mxCell id="zTeXIrseUbLqfUmHTD1K-155" value="" style="whiteSpace=wrap;html=1;" vertex="1" parent="1">
          <mxGeometry x="2759.94" y="2650" width="80" height="10" as="geometry" />
        </mxCell>
        <mxCell id="zTeXIrseUbLqfUmHTD1K-156" value="" style="edgeStyle=none;orthogonalLoop=1;jettySize=auto;html=1;rounded=0;" edge="1" parent="1" target="zTeXIrseUbLqfUmHTD1K-157">
          <mxGeometry width="80" relative="1" as="geometry">
            <mxPoint x="2839.94" y="2640" as="sourcePoint" />
            <mxPoint x="2839.94" y="2610" as="targetPoint" />
            <Array as="points" />
          </mxGeometry>
        </mxCell>
        <mxCell id="zTeXIrseUbLqfUmHTD1K-157" value="" style="whiteSpace=wrap;html=1;" vertex="1" parent="1">
          <mxGeometry x="2749.94" y="2630" width="100" height="80" as="geometry" />
        </mxCell>
        <mxCell id="zTeXIrseUbLqfUmHTD1K-158" value="" style="edgeStyle=none;orthogonalLoop=1;jettySize=auto;html=1;rounded=0;shape=link;" edge="1" parent="1">
          <mxGeometry width="80" relative="1" as="geometry">
            <mxPoint x="2759.94" y="2630" as="sourcePoint" />
            <mxPoint x="2759.94" y="2610" as="targetPoint" />
            <Array as="points" />
          </mxGeometry>
        </mxCell>
        <mxCell id="zTeXIrseUbLqfUmHTD1K-159" value="" style="edgeStyle=none;orthogonalLoop=1;jettySize=auto;html=1;rounded=0;shape=link;" edge="1" parent="1">
          <mxGeometry width="80" relative="1" as="geometry">
            <mxPoint x="2839.94" y="2630" as="sourcePoint" />
            <mxPoint x="2839.94" y="2610" as="targetPoint" />
            <Array as="points" />
          </mxGeometry>
        </mxCell>
        <mxCell id="zTeXIrseUbLqfUmHTD1K-160" value="" style="whiteSpace=wrap;html=1;" vertex="1" parent="1">
          <mxGeometry x="2759.94" y="2640" width="80" height="40" as="geometry" />
        </mxCell>
        <mxCell id="zTeXIrseUbLqfUmHTD1K-161" value="" style="shape=image;imageAspect=0;aspect=fixed;verticalLabelPosition=bottom;verticalAlign=top;image=https://www.pngall.com/wp-content/uploads/12/Gears-PNG-Image-HD.png;" vertex="1" parent="1">
          <mxGeometry x="2749.08" y="2750" width="100.86" height="90" as="geometry" />
        </mxCell>
        <mxCell id="zTeXIrseUbLqfUmHTD1K-162" value="&lt;font style=&quot;font-size: 16px;&quot; face=&quot;Helvetica&quot;&gt;&lt;b&gt;Training&lt;/b&gt;&lt;/font&gt;" style="whiteSpace=wrap;html=1;" vertex="1" parent="1">
          <mxGeometry x="2689.72" y="2850" width="220.43" height="30" as="geometry" />
        </mxCell>
        <mxCell id="zTeXIrseUbLqfUmHTD1K-163" value="" style="shape=table;startSize=0;container=1;collapsible=0;childLayout=tableLayout;fontSize=14;align=left;fontStyle=0" vertex="1" parent="1">
          <mxGeometry x="2650" y="2930" width="299.8700000000001" height="115" as="geometry" />
        </mxCell>
        <mxCell id="zTeXIrseUbLqfUmHTD1K-164" value="" style="shape=tableRow;horizontal=0;startSize=0;swimlaneHead=0;swimlaneBody=0;strokeColor=inherit;top=0;left=0;bottom=0;right=0;collapsible=0;dropTarget=0;fillColor=none;points=[[0,0.5],[1,0.5]];portConstraint=eastwest;fontSize=14;fontStyle=1;align=left;" vertex="1" parent="zTeXIrseUbLqfUmHTD1K-163">
          <mxGeometry width="299.8700000000001" height="40" as="geometry" />
        </mxCell>
        <mxCell id="zTeXIrseUbLqfUmHTD1K-165" value="Gemessene Daten" style="shape=partialRectangle;html=1;whiteSpace=wrap;connectable=0;strokeColor=inherit;overflow=hidden;fillColor=none;top=0;left=0;bottom=0;right=0;pointerEvents=1;fontSize=14;align=left;fontStyle=1" vertex="1" parent="zTeXIrseUbLqfUmHTD1K-164">
          <mxGeometry width="100" height="40" as="geometry">
            <mxRectangle width="100" height="40" as="alternateBounds" />
          </mxGeometry>
        </mxCell>
        <mxCell id="zTeXIrseUbLqfUmHTD1K-166" value="Größe (cm)" style="shape=partialRectangle;html=1;whiteSpace=wrap;connectable=0;strokeColor=inherit;overflow=hidden;fillColor=none;top=0;left=0;bottom=0;right=0;pointerEvents=1;fontSize=14;align=left;fontStyle=1" vertex="1" parent="zTeXIrseUbLqfUmHTD1K-164">
          <mxGeometry x="100" width="60" height="40" as="geometry">
            <mxRectangle width="60" height="40" as="alternateBounds" />
          </mxGeometry>
        </mxCell>
        <mxCell id="zTeXIrseUbLqfUmHTD1K-167" value="&lt;font style=&quot;font-size: 14px;&quot;&gt;Geschwindigkeit&lt;/font&gt;&lt;div style=&quot;font-size: 14px;&quot;&gt;&lt;font style=&quot;font-size: 14px;&quot;&gt;(km/h)&lt;/font&gt;&lt;/div&gt;" style="shape=partialRectangle;html=1;whiteSpace=wrap;connectable=0;strokeColor=inherit;overflow=hidden;fillColor=none;top=0;left=0;bottom=0;right=0;pointerEvents=1;fontSize=14;align=left;fontStyle=1" vertex="1" parent="zTeXIrseUbLqfUmHTD1K-164">
          <mxGeometry x="160" width="140" height="40" as="geometry">
            <mxRectangle width="140" height="40" as="alternateBounds" />
          </mxGeometry>
        </mxCell>
        <mxCell id="zTeXIrseUbLqfUmHTD1K-168" value="" style="shape=tableRow;horizontal=0;startSize=0;swimlaneHead=0;swimlaneBody=0;strokeColor=inherit;top=0;left=0;bottom=0;right=0;collapsible=0;dropTarget=0;fillColor=none;points=[[0,0.5],[1,0.5]];portConstraint=eastwest;fontSize=14;align=left;fontStyle=0" vertex="1" parent="zTeXIrseUbLqfUmHTD1K-163">
          <mxGeometry y="40" width="299.8700000000001" height="25" as="geometry" />
        </mxCell>
        <mxCell id="zTeXIrseUbLqfUmHTD1K-169" value="Hans" style="shape=partialRectangle;html=1;whiteSpace=wrap;connectable=0;strokeColor=inherit;overflow=hidden;fillColor=none;top=0;left=0;bottom=0;right=0;pointerEvents=1;fontSize=14;align=left;fontStyle=0" vertex="1" parent="zTeXIrseUbLqfUmHTD1K-168">
          <mxGeometry width="100" height="25" as="geometry">
            <mxRectangle width="100" height="25" as="alternateBounds" />
          </mxGeometry>
        </mxCell>
        <mxCell id="zTeXIrseUbLqfUmHTD1K-170" value="128,4" style="shape=partialRectangle;html=1;whiteSpace=wrap;connectable=0;strokeColor=inherit;overflow=hidden;fillColor=none;top=0;left=0;bottom=0;right=0;pointerEvents=1;fontSize=14;align=left;fontStyle=0" vertex="1" parent="zTeXIrseUbLqfUmHTD1K-168">
          <mxGeometry x="100" width="60" height="25" as="geometry">
            <mxRectangle width="60" height="25" as="alternateBounds" />
          </mxGeometry>
        </mxCell>
        <mxCell id="zTeXIrseUbLqfUmHTD1K-171" value="13,7" style="shape=partialRectangle;html=1;whiteSpace=wrap;connectable=0;strokeColor=inherit;overflow=hidden;fillColor=none;top=0;left=0;bottom=0;right=0;pointerEvents=1;fontSize=14;align=left;fontStyle=0" vertex="1" parent="zTeXIrseUbLqfUmHTD1K-168">
          <mxGeometry x="160" width="140" height="25" as="geometry">
            <mxRectangle width="140" height="25" as="alternateBounds" />
          </mxGeometry>
        </mxCell>
        <mxCell id="zTeXIrseUbLqfUmHTD1K-172" value="" style="shape=tableRow;horizontal=0;startSize=0;swimlaneHead=0;swimlaneBody=0;strokeColor=inherit;top=0;left=0;bottom=0;right=0;collapsible=0;dropTarget=0;fillColor=none;points=[[0,0.5],[1,0.5]];portConstraint=eastwest;fontSize=14;align=left;fontStyle=0" vertex="1" parent="zTeXIrseUbLqfUmHTD1K-163">
          <mxGeometry y="65" width="299.8700000000001" height="25" as="geometry" />
        </mxCell>
        <mxCell id="zTeXIrseUbLqfUmHTD1K-173" value="Laura" style="shape=partialRectangle;html=1;whiteSpace=wrap;connectable=0;strokeColor=inherit;overflow=hidden;fillColor=none;top=0;left=0;bottom=0;right=0;pointerEvents=1;fontSize=14;align=left;fontStyle=0" vertex="1" parent="zTeXIrseUbLqfUmHTD1K-172">
          <mxGeometry width="100" height="25" as="geometry">
            <mxRectangle width="100" height="25" as="alternateBounds" />
          </mxGeometry>
        </mxCell>
        <mxCell id="zTeXIrseUbLqfUmHTD1K-174" value="139,5" style="shape=partialRectangle;html=1;whiteSpace=wrap;connectable=0;strokeColor=inherit;overflow=hidden;fillColor=none;top=0;left=0;bottom=0;right=0;pointerEvents=1;fontSize=14;align=left;fontStyle=0" vertex="1" parent="zTeXIrseUbLqfUmHTD1K-172">
          <mxGeometry x="100" width="60" height="25" as="geometry">
            <mxRectangle width="60" height="25" as="alternateBounds" />
          </mxGeometry>
        </mxCell>
        <mxCell id="zTeXIrseUbLqfUmHTD1K-175" value="21,0" style="shape=partialRectangle;html=1;whiteSpace=wrap;connectable=0;strokeColor=inherit;overflow=hidden;fillColor=none;top=0;left=0;bottom=0;right=0;pointerEvents=1;fontSize=14;align=left;fontStyle=0" vertex="1" parent="zTeXIrseUbLqfUmHTD1K-172">
          <mxGeometry x="160" width="140" height="25" as="geometry">
            <mxRectangle width="140" height="25" as="alternateBounds" />
          </mxGeometry>
        </mxCell>
        <mxCell id="zTeXIrseUbLqfUmHTD1K-176" style="shape=tableRow;horizontal=0;startSize=0;swimlaneHead=0;swimlaneBody=0;strokeColor=inherit;top=0;left=0;bottom=0;right=0;collapsible=0;dropTarget=0;fillColor=none;points=[[0,0.5],[1,0.5]];portConstraint=eastwest;fontSize=14;align=left;fontStyle=0" vertex="1" parent="zTeXIrseUbLqfUmHTD1K-163">
          <mxGeometry y="90" width="299.8700000000001" height="25" as="geometry" />
        </mxCell>
        <mxCell id="zTeXIrseUbLqfUmHTD1K-177" value="..." style="shape=partialRectangle;html=1;whiteSpace=wrap;connectable=0;strokeColor=inherit;overflow=hidden;fillColor=none;top=0;left=0;bottom=0;right=0;pointerEvents=1;fontSize=14;align=left;fontStyle=0" vertex="1" parent="zTeXIrseUbLqfUmHTD1K-176">
          <mxGeometry width="100" height="25" as="geometry">
            <mxRectangle width="100" height="25" as="alternateBounds" />
          </mxGeometry>
        </mxCell>
        <mxCell id="zTeXIrseUbLqfUmHTD1K-178" value="...." style="shape=partialRectangle;html=1;whiteSpace=wrap;connectable=0;strokeColor=inherit;overflow=hidden;fillColor=none;top=0;left=0;bottom=0;right=0;pointerEvents=1;fontSize=14;align=left;fontStyle=0" vertex="1" parent="zTeXIrseUbLqfUmHTD1K-176">
          <mxGeometry x="100" width="60" height="25" as="geometry">
            <mxRectangle width="60" height="25" as="alternateBounds" />
          </mxGeometry>
        </mxCell>
        <mxCell id="zTeXIrseUbLqfUmHTD1K-179" value="..." style="shape=partialRectangle;html=1;whiteSpace=wrap;connectable=0;strokeColor=inherit;overflow=hidden;fillColor=none;top=0;left=0;bottom=0;right=0;pointerEvents=1;fontSize=14;align=left;fontStyle=0" vertex="1" parent="zTeXIrseUbLqfUmHTD1K-176">
          <mxGeometry x="160" width="140" height="25" as="geometry">
            <mxRectangle width="140" height="25" as="alternateBounds" />
          </mxGeometry>
        </mxCell>
        <mxCell id="zTeXIrseUbLqfUmHTD1K-195" value="" style="whiteSpace=wrap;html=1;" vertex="1" parent="1">
          <mxGeometry x="3319.9400000000005" y="4500" width="240" height="160" as="geometry" />
        </mxCell>
        <mxCell id="zTeXIrseUbLqfUmHTD1K-196" value="" style="edgeStyle=none;orthogonalLoop=1;jettySize=auto;html=1;rounded=0;entryX=0.5;entryY=1;entryDx=0;entryDy=0;exitX=0.501;exitY=0.101;exitDx=0;exitDy=0;exitPerimeter=0;" edge="1" parent="1" source="zTeXIrseUbLqfUmHTD1K-207" target="zTeXIrseUbLqfUmHTD1K-195">
          <mxGeometry width="80" relative="1" as="geometry">
            <mxPoint x="3439.9400000000005" y="4694" as="sourcePoint" />
            <mxPoint x="3319.9400000000005" y="4579.5" as="targetPoint" />
            <Array as="points" />
          </mxGeometry>
        </mxCell>
        <mxCell id="zTeXIrseUbLqfUmHTD1K-197" value="" style="whiteSpace=wrap;html=1;" vertex="1" parent="1">
          <mxGeometry x="3419.9400000000005" y="4480" width="40" height="30" as="geometry" />
        </mxCell>
        <mxCell id="zTeXIrseUbLqfUmHTD1K-198" value="" style="whiteSpace=wrap;html=1;" vertex="1" parent="1">
          <mxGeometry x="3399.9400000000005" y="4420" width="80" height="10" as="geometry" />
        </mxCell>
        <mxCell id="zTeXIrseUbLqfUmHTD1K-199" value="" style="edgeStyle=none;orthogonalLoop=1;jettySize=auto;html=1;rounded=0;" edge="1" parent="1" target="zTeXIrseUbLqfUmHTD1K-200">
          <mxGeometry width="80" relative="1" as="geometry">
            <mxPoint x="3479.9400000000005" y="4410" as="sourcePoint" />
            <mxPoint x="3479.9400000000005" y="4380" as="targetPoint" />
            <Array as="points" />
          </mxGeometry>
        </mxCell>
        <mxCell id="zTeXIrseUbLqfUmHTD1K-200" value="" style="whiteSpace=wrap;html=1;" vertex="1" parent="1">
          <mxGeometry x="3389.9400000000005" y="4400" width="100" height="80" as="geometry" />
        </mxCell>
        <mxCell id="zTeXIrseUbLqfUmHTD1K-201" value="" style="edgeStyle=none;orthogonalLoop=1;jettySize=auto;html=1;rounded=0;shape=link;" edge="1" parent="1">
          <mxGeometry width="80" relative="1" as="geometry">
            <mxPoint x="3399.9400000000005" y="4400" as="sourcePoint" />
            <mxPoint x="3399.9400000000005" y="4380" as="targetPoint" />
            <Array as="points" />
          </mxGeometry>
        </mxCell>
        <mxCell id="zTeXIrseUbLqfUmHTD1K-202" value="" style="edgeStyle=none;orthogonalLoop=1;jettySize=auto;html=1;rounded=0;shape=link;" edge="1" parent="1">
          <mxGeometry width="80" relative="1" as="geometry">
            <mxPoint x="3479.9400000000005" y="4400" as="sourcePoint" />
            <mxPoint x="3479.9400000000005" y="4380" as="targetPoint" />
            <Array as="points" />
          </mxGeometry>
        </mxCell>
        <mxCell id="zTeXIrseUbLqfUmHTD1K-203" value="" style="whiteSpace=wrap;html=1;" vertex="1" parent="1">
          <mxGeometry x="3399.9400000000005" y="4410" width="80" height="40" as="geometry" />
        </mxCell>
        <mxCell id="zTeXIrseUbLqfUmHTD1K-204" value="" style="shape=image;imageAspect=0;aspect=fixed;verticalLabelPosition=bottom;verticalAlign=top;image=https://www.pngall.com/wp-content/uploads/12/Gears-PNG-Image-HD.png;" vertex="1" parent="1">
          <mxGeometry x="3389.08" y="4520" width="100.86" height="90" as="geometry" />
        </mxCell>
        <mxCell id="zTeXIrseUbLqfUmHTD1K-205" value="&lt;font style=&quot;font-size: 16px;&quot; face=&quot;Helvetica&quot;&gt;&lt;b&gt;Training&lt;/b&gt;&lt;/font&gt;" style="whiteSpace=wrap;html=1;" vertex="1" parent="1">
          <mxGeometry x="3329.7199999999993" y="4620" width="220.43" height="30" as="geometry" />
        </mxCell>
        <mxCell id="zTeXIrseUbLqfUmHTD1K-206" value="" style="shape=table;startSize=0;container=1;collapsible=0;childLayout=tableLayout;fontSize=14;align=left;fontStyle=0" vertex="1" parent="1">
          <mxGeometry x="3290" y="4700" width="299.8700000000001" height="115" as="geometry" />
        </mxCell>
        <mxCell id="zTeXIrseUbLqfUmHTD1K-207" value="" style="shape=tableRow;horizontal=0;startSize=0;swimlaneHead=0;swimlaneBody=0;strokeColor=inherit;top=0;left=0;bottom=0;right=0;collapsible=0;dropTarget=0;fillColor=none;points=[[0,0.5],[1,0.5]];portConstraint=eastwest;fontSize=14;fontStyle=1;align=left;" vertex="1" parent="zTeXIrseUbLqfUmHTD1K-206">
          <mxGeometry width="299.8700000000001" height="40" as="geometry" />
        </mxCell>
        <mxCell id="zTeXIrseUbLqfUmHTD1K-208" value="Gemessene Daten" style="shape=partialRectangle;html=1;whiteSpace=wrap;connectable=0;strokeColor=inherit;overflow=hidden;fillColor=none;top=0;left=0;bottom=0;right=0;pointerEvents=1;fontSize=14;align=left;fontStyle=1" vertex="1" parent="zTeXIrseUbLqfUmHTD1K-207">
          <mxGeometry width="100" height="40" as="geometry">
            <mxRectangle width="100" height="40" as="alternateBounds" />
          </mxGeometry>
        </mxCell>
        <mxCell id="zTeXIrseUbLqfUmHTD1K-209" value="Größe (cm)" style="shape=partialRectangle;html=1;whiteSpace=wrap;connectable=0;strokeColor=inherit;overflow=hidden;fillColor=none;top=0;left=0;bottom=0;right=0;pointerEvents=1;fontSize=14;align=left;fontStyle=1" vertex="1" parent="zTeXIrseUbLqfUmHTD1K-207">
          <mxGeometry x="100" width="60" height="40" as="geometry">
            <mxRectangle width="60" height="40" as="alternateBounds" />
          </mxGeometry>
        </mxCell>
        <mxCell id="zTeXIrseUbLqfUmHTD1K-210" value="&lt;font style=&quot;font-size: 14px;&quot;&gt;Geschwindigkeit&lt;/font&gt;&lt;div style=&quot;font-size: 14px;&quot;&gt;&lt;font style=&quot;font-size: 14px;&quot;&gt;(km/h)&lt;/font&gt;&lt;/div&gt;" style="shape=partialRectangle;html=1;whiteSpace=wrap;connectable=0;strokeColor=inherit;overflow=hidden;fillColor=none;top=0;left=0;bottom=0;right=0;pointerEvents=1;fontSize=14;align=left;fontStyle=1" vertex="1" parent="zTeXIrseUbLqfUmHTD1K-207">
          <mxGeometry x="160" width="140" height="40" as="geometry">
            <mxRectangle width="140" height="40" as="alternateBounds" />
          </mxGeometry>
        </mxCell>
        <mxCell id="zTeXIrseUbLqfUmHTD1K-211" value="" style="shape=tableRow;horizontal=0;startSize=0;swimlaneHead=0;swimlaneBody=0;strokeColor=inherit;top=0;left=0;bottom=0;right=0;collapsible=0;dropTarget=0;fillColor=none;points=[[0,0.5],[1,0.5]];portConstraint=eastwest;fontSize=14;align=left;fontStyle=0" vertex="1" parent="zTeXIrseUbLqfUmHTD1K-206">
          <mxGeometry y="40" width="299.8700000000001" height="25" as="geometry" />
        </mxCell>
        <mxCell id="zTeXIrseUbLqfUmHTD1K-212" value="Hans" style="shape=partialRectangle;html=1;whiteSpace=wrap;connectable=0;strokeColor=inherit;overflow=hidden;fillColor=none;top=0;left=0;bottom=0;right=0;pointerEvents=1;fontSize=14;align=left;fontStyle=0" vertex="1" parent="zTeXIrseUbLqfUmHTD1K-211">
          <mxGeometry width="100" height="25" as="geometry">
            <mxRectangle width="100" height="25" as="alternateBounds" />
          </mxGeometry>
        </mxCell>
        <mxCell id="zTeXIrseUbLqfUmHTD1K-213" value="128,4" style="shape=partialRectangle;html=1;whiteSpace=wrap;connectable=0;strokeColor=inherit;overflow=hidden;fillColor=none;top=0;left=0;bottom=0;right=0;pointerEvents=1;fontSize=14;align=left;fontStyle=0" vertex="1" parent="zTeXIrseUbLqfUmHTD1K-211">
          <mxGeometry x="100" width="60" height="25" as="geometry">
            <mxRectangle width="60" height="25" as="alternateBounds" />
          </mxGeometry>
        </mxCell>
        <mxCell id="zTeXIrseUbLqfUmHTD1K-214" value="13,7" style="shape=partialRectangle;html=1;whiteSpace=wrap;connectable=0;strokeColor=inherit;overflow=hidden;fillColor=none;top=0;left=0;bottom=0;right=0;pointerEvents=1;fontSize=14;align=left;fontStyle=0" vertex="1" parent="zTeXIrseUbLqfUmHTD1K-211">
          <mxGeometry x="160" width="140" height="25" as="geometry">
            <mxRectangle width="140" height="25" as="alternateBounds" />
          </mxGeometry>
        </mxCell>
        <mxCell id="zTeXIrseUbLqfUmHTD1K-215" value="" style="shape=tableRow;horizontal=0;startSize=0;swimlaneHead=0;swimlaneBody=0;strokeColor=inherit;top=0;left=0;bottom=0;right=0;collapsible=0;dropTarget=0;fillColor=none;points=[[0,0.5],[1,0.5]];portConstraint=eastwest;fontSize=14;align=left;fontStyle=0" vertex="1" parent="zTeXIrseUbLqfUmHTD1K-206">
          <mxGeometry y="65" width="299.8700000000001" height="25" as="geometry" />
        </mxCell>
        <mxCell id="zTeXIrseUbLqfUmHTD1K-216" value="Laura" style="shape=partialRectangle;html=1;whiteSpace=wrap;connectable=0;strokeColor=inherit;overflow=hidden;fillColor=none;top=0;left=0;bottom=0;right=0;pointerEvents=1;fontSize=14;align=left;fontStyle=0" vertex="1" parent="zTeXIrseUbLqfUmHTD1K-215">
          <mxGeometry width="100" height="25" as="geometry">
            <mxRectangle width="100" height="25" as="alternateBounds" />
          </mxGeometry>
        </mxCell>
        <mxCell id="zTeXIrseUbLqfUmHTD1K-217" value="139,5" style="shape=partialRectangle;html=1;whiteSpace=wrap;connectable=0;strokeColor=inherit;overflow=hidden;fillColor=none;top=0;left=0;bottom=0;right=0;pointerEvents=1;fontSize=14;align=left;fontStyle=0" vertex="1" parent="zTeXIrseUbLqfUmHTD1K-215">
          <mxGeometry x="100" width="60" height="25" as="geometry">
            <mxRectangle width="60" height="25" as="alternateBounds" />
          </mxGeometry>
        </mxCell>
        <mxCell id="zTeXIrseUbLqfUmHTD1K-218" value="21,0" style="shape=partialRectangle;html=1;whiteSpace=wrap;connectable=0;strokeColor=inherit;overflow=hidden;fillColor=none;top=0;left=0;bottom=0;right=0;pointerEvents=1;fontSize=14;align=left;fontStyle=0" vertex="1" parent="zTeXIrseUbLqfUmHTD1K-215">
          <mxGeometry x="160" width="140" height="25" as="geometry">
            <mxRectangle width="140" height="25" as="alternateBounds" />
          </mxGeometry>
        </mxCell>
        <mxCell id="zTeXIrseUbLqfUmHTD1K-219" style="shape=tableRow;horizontal=0;startSize=0;swimlaneHead=0;swimlaneBody=0;strokeColor=inherit;top=0;left=0;bottom=0;right=0;collapsible=0;dropTarget=0;fillColor=none;points=[[0,0.5],[1,0.5]];portConstraint=eastwest;fontSize=14;align=left;fontStyle=0" vertex="1" parent="zTeXIrseUbLqfUmHTD1K-206">
          <mxGeometry y="90" width="299.8700000000001" height="25" as="geometry" />
        </mxCell>
        <mxCell id="zTeXIrseUbLqfUmHTD1K-220" value="..." style="shape=partialRectangle;html=1;whiteSpace=wrap;connectable=0;strokeColor=inherit;overflow=hidden;fillColor=none;top=0;left=0;bottom=0;right=0;pointerEvents=1;fontSize=14;align=left;fontStyle=0" vertex="1" parent="zTeXIrseUbLqfUmHTD1K-219">
          <mxGeometry width="100" height="25" as="geometry">
            <mxRectangle width="100" height="25" as="alternateBounds" />
          </mxGeometry>
        </mxCell>
        <mxCell id="zTeXIrseUbLqfUmHTD1K-221" value="...." style="shape=partialRectangle;html=1;whiteSpace=wrap;connectable=0;strokeColor=inherit;overflow=hidden;fillColor=none;top=0;left=0;bottom=0;right=0;pointerEvents=1;fontSize=14;align=left;fontStyle=0" vertex="1" parent="zTeXIrseUbLqfUmHTD1K-219">
          <mxGeometry x="100" width="60" height="25" as="geometry">
            <mxRectangle width="60" height="25" as="alternateBounds" />
          </mxGeometry>
        </mxCell>
        <mxCell id="zTeXIrseUbLqfUmHTD1K-222" value="..." style="shape=partialRectangle;html=1;whiteSpace=wrap;connectable=0;strokeColor=inherit;overflow=hidden;fillColor=none;top=0;left=0;bottom=0;right=0;pointerEvents=1;fontSize=14;align=left;fontStyle=0" vertex="1" parent="zTeXIrseUbLqfUmHTD1K-219">
          <mxGeometry x="160" width="140" height="25" as="geometry">
            <mxRectangle width="140" height="25" as="alternateBounds" />
          </mxGeometry>
        </mxCell>
        <mxCell id="zTeXIrseUbLqfUmHTD1K-238" value="" style="whiteSpace=wrap;html=1;" vertex="1" parent="1">
          <mxGeometry x="3649.9400000000005" y="4330" width="240" height="160" as="geometry" />
        </mxCell>
        <mxCell id="zTeXIrseUbLqfUmHTD1K-239" value="" style="edgeStyle=none;orthogonalLoop=1;jettySize=auto;html=1;rounded=0;entryX=0.5;entryY=1;entryDx=0;entryDy=0;exitX=0.501;exitY=0.101;exitDx=0;exitDy=0;exitPerimeter=0;" edge="1" parent="1" source="zTeXIrseUbLqfUmHTD1K-250" target="zTeXIrseUbLqfUmHTD1K-238">
          <mxGeometry width="80" relative="1" as="geometry">
            <mxPoint x="3769.9400000000005" y="4524" as="sourcePoint" />
            <mxPoint x="3649.9400000000005" y="4409.5" as="targetPoint" />
            <Array as="points" />
          </mxGeometry>
        </mxCell>
        <mxCell id="zTeXIrseUbLqfUmHTD1K-240" value="" style="whiteSpace=wrap;html=1;" vertex="1" parent="1">
          <mxGeometry x="3749.9400000000005" y="4310" width="40" height="30" as="geometry" />
        </mxCell>
        <mxCell id="zTeXIrseUbLqfUmHTD1K-241" value="" style="whiteSpace=wrap;html=1;" vertex="1" parent="1">
          <mxGeometry x="3729.9400000000005" y="4250" width="80" height="10" as="geometry" />
        </mxCell>
        <mxCell id="zTeXIrseUbLqfUmHTD1K-242" value="" style="edgeStyle=none;orthogonalLoop=1;jettySize=auto;html=1;rounded=0;" edge="1" parent="1" target="zTeXIrseUbLqfUmHTD1K-243">
          <mxGeometry width="80" relative="1" as="geometry">
            <mxPoint x="3809.9400000000005" y="4240" as="sourcePoint" />
            <mxPoint x="3809.9400000000005" y="4210" as="targetPoint" />
            <Array as="points" />
          </mxGeometry>
        </mxCell>
        <mxCell id="zTeXIrseUbLqfUmHTD1K-243" value="" style="whiteSpace=wrap;html=1;" vertex="1" parent="1">
          <mxGeometry x="3719.9400000000005" y="4230" width="100" height="80" as="geometry" />
        </mxCell>
        <mxCell id="zTeXIrseUbLqfUmHTD1K-244" value="" style="edgeStyle=none;orthogonalLoop=1;jettySize=auto;html=1;rounded=0;shape=link;" edge="1" parent="1">
          <mxGeometry width="80" relative="1" as="geometry">
            <mxPoint x="3729.9400000000005" y="4230" as="sourcePoint" />
            <mxPoint x="3729.9400000000005" y="4210" as="targetPoint" />
            <Array as="points" />
          </mxGeometry>
        </mxCell>
        <mxCell id="zTeXIrseUbLqfUmHTD1K-245" value="" style="edgeStyle=none;orthogonalLoop=1;jettySize=auto;html=1;rounded=0;shape=link;" edge="1" parent="1">
          <mxGeometry width="80" relative="1" as="geometry">
            <mxPoint x="3809.9400000000005" y="4230" as="sourcePoint" />
            <mxPoint x="3809.9400000000005" y="4210" as="targetPoint" />
            <Array as="points" />
          </mxGeometry>
        </mxCell>
        <mxCell id="zTeXIrseUbLqfUmHTD1K-246" value="" style="whiteSpace=wrap;html=1;" vertex="1" parent="1">
          <mxGeometry x="3729.9400000000005" y="4240" width="80" height="40" as="geometry" />
        </mxCell>
        <mxCell id="zTeXIrseUbLqfUmHTD1K-247" value="" style="shape=image;imageAspect=0;aspect=fixed;verticalLabelPosition=bottom;verticalAlign=top;image=https://www.pngall.com/wp-content/uploads/12/Gears-PNG-Image-HD.png;" vertex="1" parent="1">
          <mxGeometry x="3719.08" y="4350" width="100.86" height="90" as="geometry" />
        </mxCell>
        <mxCell id="zTeXIrseUbLqfUmHTD1K-248" value="&lt;font style=&quot;font-size: 16px;&quot; face=&quot;Helvetica&quot;&gt;&lt;b&gt;Training&lt;/b&gt;&lt;/font&gt;" style="whiteSpace=wrap;html=1;" vertex="1" parent="1">
          <mxGeometry x="3659.7199999999993" y="4450" width="220.43" height="30" as="geometry" />
        </mxCell>
        <mxCell id="zTeXIrseUbLqfUmHTD1K-249" value="" style="shape=table;startSize=0;container=1;collapsible=0;childLayout=tableLayout;fontSize=14;align=left;fontStyle=0" vertex="1" parent="1">
          <mxGeometry x="3620" y="4530" width="299.8700000000001" height="115" as="geometry" />
        </mxCell>
        <mxCell id="zTeXIrseUbLqfUmHTD1K-250" value="" style="shape=tableRow;horizontal=0;startSize=0;swimlaneHead=0;swimlaneBody=0;strokeColor=inherit;top=0;left=0;bottom=0;right=0;collapsible=0;dropTarget=0;fillColor=none;points=[[0,0.5],[1,0.5]];portConstraint=eastwest;fontSize=14;fontStyle=1;align=left;" vertex="1" parent="zTeXIrseUbLqfUmHTD1K-249">
          <mxGeometry width="299.8700000000001" height="40" as="geometry" />
        </mxCell>
        <mxCell id="zTeXIrseUbLqfUmHTD1K-251" value="Gemessene Daten" style="shape=partialRectangle;html=1;whiteSpace=wrap;connectable=0;strokeColor=inherit;overflow=hidden;fillColor=none;top=0;left=0;bottom=0;right=0;pointerEvents=1;fontSize=14;align=left;fontStyle=1" vertex="1" parent="zTeXIrseUbLqfUmHTD1K-250">
          <mxGeometry width="100" height="40" as="geometry">
            <mxRectangle width="100" height="40" as="alternateBounds" />
          </mxGeometry>
        </mxCell>
        <mxCell id="zTeXIrseUbLqfUmHTD1K-252" value="Größe (cm)" style="shape=partialRectangle;html=1;whiteSpace=wrap;connectable=0;strokeColor=inherit;overflow=hidden;fillColor=none;top=0;left=0;bottom=0;right=0;pointerEvents=1;fontSize=14;align=left;fontStyle=1" vertex="1" parent="zTeXIrseUbLqfUmHTD1K-250">
          <mxGeometry x="100" width="60" height="40" as="geometry">
            <mxRectangle width="60" height="40" as="alternateBounds" />
          </mxGeometry>
        </mxCell>
        <mxCell id="zTeXIrseUbLqfUmHTD1K-253" value="&lt;font style=&quot;font-size: 14px;&quot;&gt;Geschwindigkeit&lt;/font&gt;&lt;div style=&quot;font-size: 14px;&quot;&gt;&lt;font style=&quot;font-size: 14px;&quot;&gt;(km/h)&lt;/font&gt;&lt;/div&gt;" style="shape=partialRectangle;html=1;whiteSpace=wrap;connectable=0;strokeColor=inherit;overflow=hidden;fillColor=none;top=0;left=0;bottom=0;right=0;pointerEvents=1;fontSize=14;align=left;fontStyle=1" vertex="1" parent="zTeXIrseUbLqfUmHTD1K-250">
          <mxGeometry x="160" width="140" height="40" as="geometry">
            <mxRectangle width="140" height="40" as="alternateBounds" />
          </mxGeometry>
        </mxCell>
        <mxCell id="zTeXIrseUbLqfUmHTD1K-254" value="" style="shape=tableRow;horizontal=0;startSize=0;swimlaneHead=0;swimlaneBody=0;strokeColor=inherit;top=0;left=0;bottom=0;right=0;collapsible=0;dropTarget=0;fillColor=none;points=[[0,0.5],[1,0.5]];portConstraint=eastwest;fontSize=14;align=left;fontStyle=0" vertex="1" parent="zTeXIrseUbLqfUmHTD1K-249">
          <mxGeometry y="40" width="299.8700000000001" height="25" as="geometry" />
        </mxCell>
        <mxCell id="zTeXIrseUbLqfUmHTD1K-255" value="Hans" style="shape=partialRectangle;html=1;whiteSpace=wrap;connectable=0;strokeColor=inherit;overflow=hidden;fillColor=none;top=0;left=0;bottom=0;right=0;pointerEvents=1;fontSize=14;align=left;fontStyle=0" vertex="1" parent="zTeXIrseUbLqfUmHTD1K-254">
          <mxGeometry width="100" height="25" as="geometry">
            <mxRectangle width="100" height="25" as="alternateBounds" />
          </mxGeometry>
        </mxCell>
        <mxCell id="zTeXIrseUbLqfUmHTD1K-256" value="128,4" style="shape=partialRectangle;html=1;whiteSpace=wrap;connectable=0;strokeColor=inherit;overflow=hidden;fillColor=none;top=0;left=0;bottom=0;right=0;pointerEvents=1;fontSize=14;align=left;fontStyle=0" vertex="1" parent="zTeXIrseUbLqfUmHTD1K-254">
          <mxGeometry x="100" width="60" height="25" as="geometry">
            <mxRectangle width="60" height="25" as="alternateBounds" />
          </mxGeometry>
        </mxCell>
        <mxCell id="zTeXIrseUbLqfUmHTD1K-257" value="13,7" style="shape=partialRectangle;html=1;whiteSpace=wrap;connectable=0;strokeColor=inherit;overflow=hidden;fillColor=none;top=0;left=0;bottom=0;right=0;pointerEvents=1;fontSize=14;align=left;fontStyle=0" vertex="1" parent="zTeXIrseUbLqfUmHTD1K-254">
          <mxGeometry x="160" width="140" height="25" as="geometry">
            <mxRectangle width="140" height="25" as="alternateBounds" />
          </mxGeometry>
        </mxCell>
        <mxCell id="zTeXIrseUbLqfUmHTD1K-258" value="" style="shape=tableRow;horizontal=0;startSize=0;swimlaneHead=0;swimlaneBody=0;strokeColor=inherit;top=0;left=0;bottom=0;right=0;collapsible=0;dropTarget=0;fillColor=none;points=[[0,0.5],[1,0.5]];portConstraint=eastwest;fontSize=14;align=left;fontStyle=0" vertex="1" parent="zTeXIrseUbLqfUmHTD1K-249">
          <mxGeometry y="65" width="299.8700000000001" height="25" as="geometry" />
        </mxCell>
        <mxCell id="zTeXIrseUbLqfUmHTD1K-259" value="Laura" style="shape=partialRectangle;html=1;whiteSpace=wrap;connectable=0;strokeColor=inherit;overflow=hidden;fillColor=none;top=0;left=0;bottom=0;right=0;pointerEvents=1;fontSize=14;align=left;fontStyle=0" vertex="1" parent="zTeXIrseUbLqfUmHTD1K-258">
          <mxGeometry width="100" height="25" as="geometry">
            <mxRectangle width="100" height="25" as="alternateBounds" />
          </mxGeometry>
        </mxCell>
        <mxCell id="zTeXIrseUbLqfUmHTD1K-260" value="139,5" style="shape=partialRectangle;html=1;whiteSpace=wrap;connectable=0;strokeColor=inherit;overflow=hidden;fillColor=none;top=0;left=0;bottom=0;right=0;pointerEvents=1;fontSize=14;align=left;fontStyle=0" vertex="1" parent="zTeXIrseUbLqfUmHTD1K-258">
          <mxGeometry x="100" width="60" height="25" as="geometry">
            <mxRectangle width="60" height="25" as="alternateBounds" />
          </mxGeometry>
        </mxCell>
        <mxCell id="zTeXIrseUbLqfUmHTD1K-261" value="21,0" style="shape=partialRectangle;html=1;whiteSpace=wrap;connectable=0;strokeColor=inherit;overflow=hidden;fillColor=none;top=0;left=0;bottom=0;right=0;pointerEvents=1;fontSize=14;align=left;fontStyle=0" vertex="1" parent="zTeXIrseUbLqfUmHTD1K-258">
          <mxGeometry x="160" width="140" height="25" as="geometry">
            <mxRectangle width="140" height="25" as="alternateBounds" />
          </mxGeometry>
        </mxCell>
        <mxCell id="zTeXIrseUbLqfUmHTD1K-262" style="shape=tableRow;horizontal=0;startSize=0;swimlaneHead=0;swimlaneBody=0;strokeColor=inherit;top=0;left=0;bottom=0;right=0;collapsible=0;dropTarget=0;fillColor=none;points=[[0,0.5],[1,0.5]];portConstraint=eastwest;fontSize=14;align=left;fontStyle=0" vertex="1" parent="zTeXIrseUbLqfUmHTD1K-249">
          <mxGeometry y="90" width="299.8700000000001" height="25" as="geometry" />
        </mxCell>
        <mxCell id="zTeXIrseUbLqfUmHTD1K-263" value="..." style="shape=partialRectangle;html=1;whiteSpace=wrap;connectable=0;strokeColor=inherit;overflow=hidden;fillColor=none;top=0;left=0;bottom=0;right=0;pointerEvents=1;fontSize=14;align=left;fontStyle=0" vertex="1" parent="zTeXIrseUbLqfUmHTD1K-262">
          <mxGeometry width="100" height="25" as="geometry">
            <mxRectangle width="100" height="25" as="alternateBounds" />
          </mxGeometry>
        </mxCell>
        <mxCell id="zTeXIrseUbLqfUmHTD1K-264" value="...." style="shape=partialRectangle;html=1;whiteSpace=wrap;connectable=0;strokeColor=inherit;overflow=hidden;fillColor=none;top=0;left=0;bottom=0;right=0;pointerEvents=1;fontSize=14;align=left;fontStyle=0" vertex="1" parent="zTeXIrseUbLqfUmHTD1K-262">
          <mxGeometry x="100" width="60" height="25" as="geometry">
            <mxRectangle width="60" height="25" as="alternateBounds" />
          </mxGeometry>
        </mxCell>
        <mxCell id="zTeXIrseUbLqfUmHTD1K-265" value="..." style="shape=partialRectangle;html=1;whiteSpace=wrap;connectable=0;strokeColor=inherit;overflow=hidden;fillColor=none;top=0;left=0;bottom=0;right=0;pointerEvents=1;fontSize=14;align=left;fontStyle=0" vertex="1" parent="zTeXIrseUbLqfUmHTD1K-262">
          <mxGeometry x="160" width="140" height="25" as="geometry">
            <mxRectangle width="140" height="25" as="alternateBounds" />
          </mxGeometry>
        </mxCell>
        <mxCell id="zTeXIrseUbLqfUmHTD1K-338" value="" style="whiteSpace=wrap;html=1;" vertex="1" parent="1">
          <mxGeometry x="3070" y="1800" width="240" height="160" as="geometry" />
        </mxCell>
        <mxCell id="zTeXIrseUbLqfUmHTD1K-339" value="" style="edgeStyle=none;orthogonalLoop=1;jettySize=auto;html=1;rounded=0;" edge="1" parent="1">
          <mxGeometry width="80" relative="1" as="geometry">
            <mxPoint x="2950" y="1880" as="sourcePoint" />
            <mxPoint x="3070" y="1879.5" as="targetPoint" />
            <Array as="points" />
          </mxGeometry>
        </mxCell>
        <mxCell id="zTeXIrseUbLqfUmHTD1K-340" value="" style="edgeStyle=none;orthogonalLoop=1;jettySize=auto;html=1;rounded=0;" edge="1" parent="1">
          <mxGeometry width="80" relative="1" as="geometry">
            <mxPoint x="3310" y="1879.5" as="sourcePoint" />
            <mxPoint x="3430" y="1880" as="targetPoint" />
            <Array as="points" />
          </mxGeometry>
        </mxCell>
        <mxCell id="zTeXIrseUbLqfUmHTD1K-341" value="" style="whiteSpace=wrap;html=1;" vertex="1" parent="1">
          <mxGeometry x="3170" y="1780" width="40" height="30" as="geometry" />
        </mxCell>
        <mxCell id="zTeXIrseUbLqfUmHTD1K-342" value="" style="whiteSpace=wrap;html=1;" vertex="1" parent="1">
          <mxGeometry x="3150" y="1720" width="80" height="10" as="geometry" />
        </mxCell>
        <mxCell id="zTeXIrseUbLqfUmHTD1K-343" value="" style="edgeStyle=none;orthogonalLoop=1;jettySize=auto;html=1;rounded=0;" edge="1" parent="1" target="zTeXIrseUbLqfUmHTD1K-344">
          <mxGeometry width="80" relative="1" as="geometry">
            <mxPoint x="3230" y="1710" as="sourcePoint" />
            <mxPoint x="3230" y="1680" as="targetPoint" />
            <Array as="points" />
          </mxGeometry>
        </mxCell>
        <mxCell id="zTeXIrseUbLqfUmHTD1K-344" value="" style="whiteSpace=wrap;html=1;" vertex="1" parent="1">
          <mxGeometry x="3140" y="1700" width="100" height="80" as="geometry" />
        </mxCell>
        <mxCell id="zTeXIrseUbLqfUmHTD1K-345" value="" style="edgeStyle=none;orthogonalLoop=1;jettySize=auto;html=1;rounded=0;shape=link;" edge="1" parent="1">
          <mxGeometry width="80" relative="1" as="geometry">
            <mxPoint x="3150" y="1700" as="sourcePoint" />
            <mxPoint x="3150" y="1680" as="targetPoint" />
            <Array as="points" />
          </mxGeometry>
        </mxCell>
        <mxCell id="zTeXIrseUbLqfUmHTD1K-346" value="" style="edgeStyle=none;orthogonalLoop=1;jettySize=auto;html=1;rounded=0;shape=link;" edge="1" parent="1">
          <mxGeometry width="80" relative="1" as="geometry">
            <mxPoint x="3230" y="1700" as="sourcePoint" />
            <mxPoint x="3230" y="1680" as="targetPoint" />
            <Array as="points" />
          </mxGeometry>
        </mxCell>
        <mxCell id="zTeXIrseUbLqfUmHTD1K-347" value="" style="whiteSpace=wrap;html=1;" vertex="1" parent="1">
          <mxGeometry x="3150" y="1710" width="80" height="40" as="geometry" />
        </mxCell>
        <mxCell id="zTeXIrseUbLqfUmHTD1K-348" value="&lt;b&gt;Output&lt;/b&gt;&lt;div&gt;Geschwindigkeit (km/h)&lt;/div&gt;" style="text;strokeColor=none;align=center;fillColor=none;html=1;verticalAlign=middle;whiteSpace=wrap;rounded=0;fontFamily=Helvetica;fontSize=16;" vertex="1" parent="1">
          <mxGeometry x="3320" y="1810" width="120" height="70" as="geometry" />
        </mxCell>
        <mxCell id="zTeXIrseUbLqfUmHTD1K-349" value="&lt;b&gt;Input&lt;/b&gt;&lt;div&gt;Körpergröße&lt;/div&gt;&lt;div&gt;(cm)&lt;/div&gt;" style="text;strokeColor=none;align=center;fillColor=none;html=1;verticalAlign=middle;whiteSpace=wrap;rounded=0;fontFamily=Helvetica;fontSize=16;" vertex="1" parent="1">
          <mxGeometry x="2940" y="1810" width="140" height="70" as="geometry" />
        </mxCell>
        <mxCell id="zTeXIrseUbLqfUmHTD1K-350" value="&lt;font style=&quot;font-size: 16px;&quot;&gt;&lt;b&gt;Untrainiertes Modell&lt;/b&gt;&lt;/font&gt;" style="text;html=1;align=center;verticalAlign=middle;whiteSpace=wrap;rounded=0;" vertex="1" parent="1">
          <mxGeometry x="3080" y="1850" width="220" height="30" as="geometry" />
        </mxCell>
      </root>
    </mxGraphModel>
  </diagram>
</mxfile>
